<svg width="33" height="34" viewBox="0 0 33 34" fill="none" xmlns="http://www.w3.org/2000/svg">
<g clip-path="url(#clip0_1_4235)">
<path d="M22.3438 33.15C21.8167 33.6931 21.1635 33.9646 20.3844 33.9646C19.6052 33.9646 18.9521 33.6931 18.425 33.15L6.32501 20.6834C6.07292 20.4236 5.87217 20.1167 5.72276 19.7625C5.57334 19.4084 5.49909 19.0306 5.50001 18.6292V8.50002C5.50001 7.72085 5.76951 7.05408 6.30851 6.49969C6.84751 5.9453 7.49468 5.66763 8.25001 5.66669H18.0813C18.4708 5.66669 18.8375 5.74366 19.1813 5.8976C19.525 6.05155 19.8229 6.25791 20.075 6.51669L32.175 19.0188C32.7021 19.5618 32.9656 20.2291 32.9656 21.0205C32.9656 21.812 32.7021 22.4787 32.175 23.0209L22.3438 33.15ZM11.6875 14.1667C12.2604 14.1667 12.7476 13.9603 13.1491 13.5476C13.5506 13.1349 13.7509 12.6329 13.75 12.0417C13.75 11.4514 13.5497 10.9499 13.1491 10.5372C12.7486 10.1245 12.2613 9.91763 11.6875 9.91669C11.1146 9.91669 10.6278 10.1235 10.2273 10.5372C9.82668 10.9509 9.62593 11.4524 9.62501 12.0417C9.62501 12.632 9.82576 13.1339 10.2273 13.5476C10.6288 13.9613 11.1155 14.1676 11.6875 14.1667Z" fill="white"/>
</g>
<defs>
<clipPath id="clip0_1_4235">
<rect width="33" height="34" fill="white"/>
</clipPath>
</defs>
</svg>
