<svg width="22" height="22" viewBox="0 0 22 22" fill="none" xmlns="http://www.w3.org/2000/svg">
<path d="M20.1666 8.86418C20.1087 8.69651 20.0034 8.54924 19.8635 8.44022C19.7236 8.33121 19.555 8.26513 19.3783 8.25001L14.1624 7.48918L11.8249 2.75001C11.7499 2.59503 11.6327 2.46432 11.4868 2.37287C11.3409 2.28142 11.1721 2.23291 10.9999 2.23291C10.8277 2.23291 10.659 2.28142 10.5131 2.37287C10.3672 2.46432 10.25 2.59503 10.1749 2.75001L7.83744 7.48001L2.62161 8.25001C2.45195 8.27412 2.29245 8.34531 2.16121 8.45549C2.02997 8.56567 1.93224 8.71043 1.87911 8.87334C1.83047 9.03255 1.82611 9.20199 1.86648 9.36348C1.90685 9.52497 1.99044 9.67243 2.10827 9.79001L5.8941 13.4567L4.97744 18.6633C4.94471 18.8352 4.96185 19.0128 5.02682 19.1753C5.09179 19.3377 5.20189 19.4781 5.34411 19.58C5.48272 19.6791 5.64621 19.7376 5.81623 19.7489C5.98625 19.7603 6.15606 19.724 6.30661 19.6442L10.9999 17.1967L15.6749 19.6533C15.8036 19.7259 15.9489 19.7638 16.0966 19.7633C16.2908 19.764 16.4802 19.7031 16.6374 19.5892C16.7797 19.4873 16.8897 19.3469 16.9547 19.1844C17.0197 19.022 17.0368 18.8444 17.0041 18.6725L16.0874 13.4658L19.8733 9.79918C20.0056 9.68705 20.1034 9.53967 20.1554 9.37416C20.2073 9.20866 20.2112 9.03181 20.1666 8.86418ZM14.5291 12.5308C14.4216 12.6348 14.3412 12.7635 14.2948 12.9057C14.2485 13.0479 14.2377 13.1993 14.2633 13.3467L14.9233 17.1875L11.4766 15.3542C11.344 15.2836 11.196 15.2466 11.0458 15.2466C10.8955 15.2466 10.7476 15.2836 10.6149 15.3542L7.16827 17.1875L7.82827 13.3467C7.85388 13.1993 7.84304 13.0479 7.79671 12.9057C7.75037 12.7635 7.66994 12.6348 7.56244 12.5308L4.81244 9.78084L8.67161 9.22168C8.8201 9.20102 8.96127 9.14426 9.08273 9.05636C9.20419 8.96846 9.30223 8.85211 9.36827 8.71751L10.9999 5.22501L12.7233 8.72668C12.7893 8.86128 12.8874 8.97763 13.0088 9.06553C13.1303 9.15342 13.2714 9.21019 13.4199 9.23084L17.2791 9.79001L14.5291 12.5308Z" fill="#CDE7BE"/>
</svg>
