<svg width="22" height="22" viewBox="0 0 22 22" fill="none" xmlns="http://www.w3.org/2000/svg">
<path d="M10.3491 14.0159C10.3097 14.0594 10.2729 14.1054 10.2391 14.1534C10.2044 14.2045 10.1767 14.26 10.1566 14.3184C10.1302 14.3703 10.1116 14.4259 10.1016 14.4834C10.0971 14.5444 10.0971 14.6057 10.1016 14.6667C10.0985 14.787 10.1236 14.9062 10.1749 15.015C10.2161 15.1288 10.2818 15.2321 10.3673 15.3176C10.4529 15.4032 10.5562 15.4689 10.6699 15.51C10.7796 15.5585 10.8983 15.5836 11.0183 15.5836C11.1382 15.5836 11.2569 15.5585 11.3666 15.51C11.4803 15.4689 11.5837 15.4032 11.6692 15.3176C11.7547 15.2321 11.8204 15.1288 11.8616 15.015C11.9023 14.9036 11.921 14.7853 11.9166 14.6667C11.9173 14.5461 11.8942 14.4265 11.8485 14.3148C11.8029 14.2031 11.7357 14.1015 11.6508 14.0159C11.5655 13.93 11.4642 13.8618 11.3525 13.8152C11.2407 13.7687 11.1209 13.7447 10.9999 13.7447C10.8789 13.7447 10.7591 13.7687 10.6474 13.8152C10.5357 13.8618 10.4343 13.93 10.3491 14.0159ZM10.9999 1.83337C9.18693 1.83337 7.41465 2.37099 5.9072 3.37824C4.39974 4.38548 3.22483 5.81712 2.53103 7.49211C1.83722 9.1671 1.65569 11.0102 2.00939 12.7884C2.36309 14.5665 3.23613 16.1999 4.51811 17.4819C5.80009 18.7638 7.43344 19.6369 9.2116 19.9906C10.9898 20.3443 12.8329 20.1627 14.5079 19.4689C16.1828 18.7751 17.6145 17.6002 18.6217 16.0928C19.629 14.5853 20.1666 12.813 20.1666 11C20.1666 9.79626 19.9295 8.60426 19.4688 7.49211C19.0082 6.37996 18.3329 5.36943 17.4817 4.51823C16.6305 3.66702 15.62 2.99181 14.5079 2.53114C13.3957 2.07048 12.2037 1.83337 10.9999 1.83337ZM10.9999 18.3334C9.54953 18.3334 8.1317 17.9033 6.92574 17.0975C5.71978 16.2917 4.77985 15.1464 4.22481 13.8064C3.66976 12.4664 3.52454 10.9919 3.8075 9.56938C4.09046 8.14685 4.78889 6.84018 5.81447 5.81459C6.84006 4.78901 8.14673 4.09057 9.56926 3.80762C10.9918 3.52466 12.4663 3.66988 13.8063 4.22492C15.1463 4.77997 16.2916 5.7199 17.0974 6.92586C17.9032 8.13182 18.3333 9.54964 18.3333 11C18.3333 12.945 17.5606 14.8102 16.1854 16.1855C14.8101 17.5608 12.9448 18.3334 10.9999 18.3334ZM10.9999 6.41671C10.5169 6.4164 10.0423 6.54332 9.62392 6.7847C9.20553 7.02607 8.8581 7.3734 8.61659 7.79171C8.55026 7.89604 8.50573 8.01271 8.48567 8.1347C8.4656 8.25669 8.47042 8.38148 8.49983 8.50156C8.52924 8.62164 8.58264 8.73453 8.65682 8.83344C8.73099 8.93235 8.8244 9.01523 8.93144 9.0771C9.03847 9.13897 9.15692 9.17855 9.27964 9.19345C9.40237 9.20836 9.52685 9.19829 9.64558 9.16384C9.76432 9.1294 9.87486 9.07129 9.97055 8.99302C10.0662 8.91474 10.1451 8.81792 10.2024 8.70837C10.2832 8.56849 10.3995 8.45242 10.5395 8.37194C10.6796 8.29145 10.8384 8.2494 10.9999 8.25004C11.243 8.25004 11.4762 8.34662 11.6481 8.51853C11.82 8.69043 11.9166 8.92359 11.9166 9.16671C11.9166 9.40982 11.82 9.64298 11.6481 9.81489C11.4762 9.9868 11.243 10.0834 10.9999 10.0834C10.7568 10.0834 10.5237 10.18 10.3517 10.3519C10.1798 10.5238 10.0833 10.7569 10.0833 11V11.9167C10.0833 12.1598 10.1798 12.393 10.3517 12.5649C10.5237 12.7368 10.7568 12.8334 10.9999 12.8334C11.243 12.8334 11.4762 12.7368 11.6481 12.5649C11.82 12.393 11.9166 12.1598 11.9166 11.9167V11.7517C12.5228 11.5317 13.0325 11.1057 13.3565 10.548C13.6804 9.99034 13.7981 9.33656 13.6889 8.70094C13.5797 8.06532 13.2505 7.48831 12.759 7.07076C12.2675 6.65322 11.6448 6.42171 10.9999 6.41671Z" fill="#CDE7BE"/>
</svg>
