<svg width="16" height="16" viewBox="0 0 16 16" fill="none" xmlns="http://www.w3.org/2000/svg">
<path fill-rule="evenodd" clip-rule="evenodd" d="M4.66663 9.33269C5.02025 9.33269 5.35939 9.19221 5.60943 8.94216C5.85948 8.69211 5.99996 8.35298 5.99996 7.99935C5.99996 7.64573 5.85948 7.30659 5.60943 7.05654C5.35939 6.8065 5.02025 6.66602 4.66663 6.66602C4.313 6.66602 3.97387 6.8065 3.72382 7.05654C3.47377 7.30659 3.33329 7.64573 3.33329 7.99935C3.33329 8.35298 3.47377 8.69211 3.72382 8.94216C3.97387 9.19221 4.313 9.33269 4.66663 9.33269ZM6.97663 6.66602C6.71163 6.20762 6.31623 5.83844 5.84076 5.60547C5.36528 5.37249 4.83124 5.28626 4.30661 5.35774C3.78198 5.42923 3.29047 5.6552 2.89467 6.0069C2.49886 6.35859 2.21665 6.8201 2.08396 7.33269H1.33329C1.15648 7.33269 0.986912 7.40292 0.861888 7.52795C0.736864 7.65297 0.666626 7.82254 0.666626 7.99935C0.666626 8.17616 0.736864 8.34573 0.861888 8.47076C0.986912 8.59578 1.15648 8.66602 1.33329 8.66602H2.08396C2.24778 9.29301 2.6342 9.83895 3.17107 10.2019C3.70795 10.5648 4.35856 10.72 5.00144 10.6383C5.64432 10.5567 6.2355 10.2438 6.66461 9.75821C7.09371 9.27259 7.3314 8.64739 7.33329 7.99935H8.66663C8.66598 8.64886 8.90241 9.27628 9.33154 9.76384C9.76067 10.2514 10.353 10.5656 10.9973 10.6474C11.6417 10.7292 12.2937 10.5731 12.8311 10.2083C13.3685 9.84347 13.7542 9.29507 13.916 8.66602H14.6666C14.8434 8.66602 15.013 8.59578 15.138 8.47076C15.2631 8.34573 15.3333 8.17616 15.3333 7.99935C15.3333 7.82254 15.2631 7.65297 15.138 7.52795C15.013 7.40292 14.8434 7.33269 14.6666 7.33269H13.916C13.7833 6.8201 13.5011 6.35859 13.1052 6.0069C12.7094 5.6552 12.2179 5.42923 11.6933 5.35774C11.1687 5.28626 10.6346 5.37249 10.1592 5.60547C9.68369 5.83844 9.28829 6.20762 9.02329 6.66602H6.97663ZM9.99996 7.99935C9.99996 8.35298 10.1404 8.69211 10.3905 8.94216C10.6405 9.19221 10.9797 9.33269 11.3333 9.33269C11.6869 9.33269 12.0261 9.19221 12.2761 8.94216C12.5261 8.69211 12.6666 8.35298 12.6666 7.99935C12.6666 7.64573 12.5261 7.30659 12.2761 7.05654C12.0261 6.8065 11.6869 6.66602 11.3333 6.66602C10.9797 6.66602 10.6405 6.8065 10.3905 7.05654C10.1404 7.30659 9.99996 7.64573 9.99996 7.99935Z" fill="#181A1A"/>
</svg>
