<svg width="10" height="10" viewBox="0 0 10 10" fill="none" xmlns="http://www.w3.org/2000/svg">
<path d="M7.4217 8.20748C7.29376 8.32557 7.13523 8.38462 6.9461 8.38462C6.75698 8.38462 6.59845 8.32557 6.47051 8.20748L3.5335 5.49639C3.47232 5.43991 3.42359 5.37316 3.38732 5.29614C3.35105 5.21912 3.33303 5.13697 3.33325 5.04968V2.84693C3.33325 2.67749 3.39867 2.53248 3.5295 2.41192C3.66033 2.29136 3.81741 2.23098 4.00075 2.23077H6.38707C6.48163 2.23077 6.57063 2.24751 6.65407 2.28099C6.73751 2.31447 6.80982 2.35934 6.87101 2.41562L9.80801 5.1344C9.93595 5.2525 9.99992 5.3976 9.99992 5.56972C9.99992 5.74183 9.93595 5.88683 9.80801 6.00472L7.4217 8.20748ZM4.83513 4.07924C4.97419 4.07924 5.09245 4.03436 5.18991 3.94461C5.28736 3.85486 5.33598 3.74569 5.33576 3.61712C5.33576 3.48876 5.28714 3.3797 5.18991 3.28994C5.09267 3.20019 4.97442 3.15521 4.83513 3.15501C4.69607 3.15501 4.57792 3.19999 4.48069 3.28994C4.38346 3.3799 4.33473 3.48896 4.33451 3.61712C4.33451 3.74549 4.38323 3.85465 4.48069 3.94461C4.57814 4.03457 4.69629 4.07944 4.83513 4.07924Z" fill="white"/>
</svg>
