<svg width="24" height="24" viewBox="0 0 24 24" fill="none" xmlns="http://www.w3.org/2000/svg">
<path fill-rule="evenodd" clip-rule="evenodd" d="M7 18.0002V6.00023L10.0469 4.68742V19.313L7 18.0002ZM5 5.19084C5 4.57468 5.45096 4.05153 6.0602 3.9606L10 2.50023C10.7517 2.38796 12 2.48396 12 3.24395V20.756C12 21.516 11.2517 21.6123 10.5 21.5L6.0602 20.0394C5.45096 19.9485 5 19.4253 5 18.8092V5.19084ZM14 20.4334L14.5342 20.5953C15.2859 20.7076 16 20.1253 16 19.3653V4.17153C16 3.41153 15.2517 2.88788 14.5 3L14 3.10336V20.4334ZM17 19.4876L17.961 19.6682C19 19.6682 19 19 19 18.3759V5.5C19 5 19 4.33189 17.961 4.33189L17 4.47534V19.4876Z" fill="#C4CCCC"/>
</svg>
