<svg width="24" height="24" viewBox="0 0 24 24" fill="none" xmlns="http://www.w3.org/2000/svg">
<path d="M24 11.6615C24 5.22103 18.6274 0 12 0C5.37258 0 0 5.22103 0 11.6615C0 17.482 4.3882 22.3065 10.125 23.1813V15.0324H7.07812V11.6615H10.125V9.09233C10.125 6.16967 11.9166 4.55528 14.6576 4.55528C15.9701 4.55528 17.3437 4.78304 17.3437 4.78304V7.65286H15.8306C14.34 7.65286 13.875 8.55185 13.875 9.47498V11.6615H17.2031L16.6711 15.0324H13.875V23.1813C19.6118 22.3065 24 17.482 24 11.6615Z" fill="#1877F2"/>
<path d="M16.6711 14.9411L17.2031 11.5907H13.875V9.41742C13.875 8.50081 14.34 7.60638 15.8306 7.60638H17.3438V4.75399C17.3438 4.75399 15.9706 4.52761 14.6576 4.52761C11.9166 4.52761 10.125 6.13219 10.125 9.0371V11.5907H7.07813V14.9411H10.125V23.0405C11.3675 23.2283 12.6326 23.2283 13.875 23.0405V14.9411H16.6711Z" fill="white"/>
</svg>
