<svg width="20" height="20" viewBox="0 0 20 20" fill="none" xmlns="http://www.w3.org/2000/svg">
<path d="M5.50798 16.7304H6.96552H10.3698H14.268H17.2074H17.9172C18.2208 16.7304 18.474 16.4801 18.474 16.1801C18.474 15.8801 18.2208 15.6299 17.9172 15.6299H16.4597H13.0554H9.15718H6.2178H5.50798C5.20442 15.6299 4.95117 15.8802 4.95117 16.1801C4.95117 16.4801 5.20444 16.7304 5.50798 16.7304Z" fill="#EAF4F4"/>
<path d="M3.84477 15.1291C3.91849 15.1297 3.9915 15.1346 4.06466 15.1437C4.01537 15.1371 3.96594 15.1307 3.91665 15.1241C3.99676 15.1354 4.07531 15.152 4.15315 15.1737C4.19563 15.1857 4.23725 15.2004 4.27858 15.2157C4.33156 15.2365 4.31154 15.2281 4.2185 15.19C4.24264 15.2003 4.26608 15.2118 4.28966 15.2232C4.35983 15.2573 4.42659 15.2981 4.49108 15.3419C4.60884 15.4219 4.39222 15.2594 4.5016 15.3499C4.53469 15.3773 4.56594 15.4069 4.59677 15.4368C4.62134 15.4608 4.64464 15.4861 4.66765 15.5115C4.67901 15.5243 4.69023 15.5373 4.70131 15.5505C4.76751 15.6286 4.61665 15.4382 4.67773 15.5203C4.7293 15.5895 4.77333 15.6639 4.81296 15.7403C4.83285 15.7785 4.88441 15.9028 4.81083 15.7271C4.82774 15.7674 4.8418 15.8087 4.8553 15.8502C4.88257 15.9346 4.90061 16.0216 4.91339 16.109C4.90672 16.0603 4.90018 16.0115 4.89351 15.9628C4.91212 16.1076 4.91212 16.2524 4.89351 16.3974C4.90018 16.3487 4.90672 16.2998 4.91339 16.2511C4.90189 16.3303 4.88513 16.4079 4.86297 16.4848C4.85089 16.5268 4.83598 16.5679 4.8205 16.6088C4.79947 16.6611 4.808 16.6413 4.84649 16.5494C4.83612 16.5733 4.82447 16.5964 4.81297 16.6197C4.77845 16.6891 4.73711 16.7551 4.69279 16.8188C4.61183 16.9352 4.77632 16.7211 4.6847 16.8292C4.65686 16.8619 4.62703 16.8928 4.59677 16.9232C4.57248 16.9475 4.54691 16.9705 4.5212 16.9933C4.50827 17.0045 4.49506 17.0156 4.48171 17.0265C4.40273 17.0919 4.59535 16.9429 4.51225 17.0032C4.44222 17.0542 4.36694 17.0977 4.28967 17.1369C4.25103 17.1565 4.12518 17.2075 4.30302 17.1348C4.26225 17.1515 4.22049 17.1654 4.17844 17.1787C4.09307 17.2057 4.005 17.2235 3.91651 17.2361C3.9658 17.2295 4.01523 17.2231 4.06452 17.2165C3.91793 17.2348 3.77148 17.2348 3.62473 17.2165C3.67403 17.2231 3.72346 17.2295 3.77275 17.2361C3.69263 17.2247 3.61408 17.2082 3.53624 17.1864C3.49377 17.1745 3.45215 17.1598 3.41081 17.1444C3.35797 17.1237 3.37786 17.1321 3.4709 17.1701C3.44689 17.1599 3.42331 17.1484 3.39973 17.137C3.32956 17.1029 3.2628 17.0621 3.19831 17.0183C3.08055 16.9382 3.29717 17.1008 3.1878 17.0103C3.1547 16.9829 3.12345 16.9533 3.09263 16.9234C3.06805 16.8994 3.04476 16.8741 3.02174 16.8487C3.01038 16.8359 2.99916 16.8229 2.98808 16.8097C2.92189 16.7316 3.07274 16.922 3.01166 16.8398C2.9601 16.7706 2.91606 16.6962 2.87643 16.6199C2.85654 16.5817 2.80498 16.4573 2.87856 16.6331C2.86166 16.5928 2.84759 16.5515 2.8341 16.51C2.80682 16.4256 2.78878 16.3386 2.776 16.2511C2.78267 16.2998 2.78921 16.3487 2.79588 16.3974C2.77728 16.2525 2.77728 16.1078 2.79588 15.9628C2.78921 16.0115 2.78267 16.0603 2.776 16.1091C2.7875 16.0299 2.80427 15.9523 2.82642 15.8753C2.8385 15.8334 2.85341 15.7922 2.8689 15.7514C2.88992 15.699 2.8814 15.7188 2.8429 15.8108C2.85327 15.7869 2.86492 15.7637 2.87643 15.7404C2.91094 15.6711 2.95228 15.6051 2.9966 15.5414C3.07757 15.425 2.91307 15.6391 3.0047 15.531C3.03239 15.4983 3.06236 15.4674 3.09262 15.437C3.11691 15.4127 3.14248 15.3896 3.16819 15.3669C3.18112 15.3557 3.19433 15.3446 3.20768 15.3336C3.28666 15.2682 3.09404 15.4173 3.17714 15.3569C3.24717 15.306 3.32245 15.2625 3.39973 15.2233C3.43836 15.2037 3.56422 15.1527 3.38637 15.2254C3.42714 15.2087 3.4689 15.1948 3.51095 15.1815C3.59632 15.1545 3.68439 15.1367 3.77288 15.1241C3.72359 15.1307 3.67416 15.1371 3.62487 15.1437C3.69802 15.1346 3.77104 15.1298 3.84476 15.1291C4.14832 15.1266 4.40157 14.8806 4.40157 14.5789C4.40157 14.2809 4.1483 14.0261 3.84476 14.0286C3.27457 14.0334 2.7358 14.2525 2.32373 14.6408C1.9139 15.0268 1.69219 15.5716 1.66845 16.1251C1.64444 16.6876 1.87655 17.2316 2.25154 17.646C2.6298 18.0641 3.17668 18.2862 3.73381 18.3281C4.30571 18.371 4.85783 18.146 5.2891 17.7885C5.72547 17.4267 5.9526 16.8916 6.01369 16.3439C6.04267 16.0841 6.00545 15.8068 5.92932 15.5577C5.84096 15.2685 5.6921 15.0272 5.50531 14.7924C5.15574 14.3527 4.61396 14.1121 4.06468 14.0432C3.99153 14.0339 3.91851 14.0291 3.84479 14.0286C3.54123 14.0261 3.28798 14.2808 3.28798 14.5788C3.28798 14.8808 3.54125 15.1265 3.84479 15.1291L3.84477 15.1291Z" fill="#EAF4F4"/>
<path d="M14.922 10.5495H17.8079H17.9177C18.2212 10.5495 18.4745 10.2992 18.4745 9.99922C18.4745 9.69924 18.2212 9.44897 17.9177 9.44897H15.0318H14.922C14.6185 9.44897 14.3652 9.69926 14.3652 9.99922C14.3652 10.2992 14.6186 10.5495 14.922 10.5495Z" fill="#EAF4F4"/>
<path d="M2.22526 10.5495H4.05895H7.84045H10.9898H11.5214C11.825 10.5495 12.0782 10.2992 12.0782 9.99922C12.0782 9.69924 11.825 9.44897 11.5214 9.44897H9.68774H5.90625H2.75694H2.22526C1.92171 9.44897 1.66846 9.69926 1.66846 9.99922C1.66846 10.2992 1.92173 10.5495 2.22526 10.5495Z" fill="#EAF4F4"/>
<path d="M13.2264 8.9481C13.3001 8.94866 13.3731 8.95358 13.4463 8.9627C13.397 8.9561 13.3475 8.94965 13.2982 8.94305C13.3784 8.95442 13.4569 8.97098 13.5347 8.99288C13.5772 9.00481 13.6188 9.01955 13.6602 9.03485C13.7132 9.05563 13.6931 9.04721 13.6001 9.00916C13.6242 9.01941 13.6477 9.03092 13.6713 9.04229C13.7414 9.0764 13.8082 9.11725 13.8727 9.16105C13.9904 9.24106 13.7738 9.07851 13.8832 9.16905C13.9163 9.19642 13.9475 9.22604 13.9784 9.25594C14.0029 9.27994 14.0262 9.30521 14.0492 9.33062C14.0606 9.34339 14.0718 9.35645 14.0829 9.36964C14.1491 9.44769 13.9982 9.25734 14.0593 9.33946C14.1109 9.40866 14.1549 9.48306 14.1946 9.55942C14.2144 9.5976 14.266 9.72197 14.1924 9.54623C14.2093 9.58651 14.2234 9.62778 14.2369 9.66934C14.2642 9.7537 14.2822 9.84073 14.295 9.92818C14.2883 9.87947 14.2818 9.83062 14.2751 9.78191C14.2937 9.92678 14.2937 10.0715 14.2751 10.2165C14.2818 10.1678 14.2883 10.119 14.295 10.0702C14.2835 10.1494 14.2667 10.227 14.2447 10.304C14.2326 10.3459 14.2177 10.3871 14.2022 10.4279C14.1812 10.4803 14.1897 10.4605 14.2282 10.3685C14.2179 10.3924 14.2062 10.4156 14.1947 10.4389C14.1602 10.5082 14.1188 10.5742 14.0745 10.6379C13.9936 10.7543 14.1581 10.5402 14.0664 10.6483C14.0387 10.681 14.0088 10.7119 13.9785 10.7424C13.9542 10.7666 13.9286 10.7897 13.9029 10.8124C13.89 10.8236 13.8768 10.8347 13.8634 10.8457C13.7845 10.9111 13.9771 10.762 13.894 10.8224C13.824 10.8733 13.7487 10.9168 13.6714 10.956C13.6328 10.9757 13.5069 11.0266 13.6848 10.9539C13.644 10.9706 13.6022 10.9845 13.5602 10.9978C13.4748 11.0248 13.3867 11.0426 13.2982 11.0552C13.3475 11.0486 13.397 11.0422 13.4463 11.0356C13.2997 11.054 13.1532 11.054 13.0065 11.0356C13.0558 11.0422 13.1052 11.0486 13.1545 11.0552C13.0744 11.0439 12.9958 11.0273 12.918 11.0056C12.8755 10.9936 12.8339 10.9789 12.7925 10.9636C12.7396 10.9428 12.7596 10.9512 12.8526 10.9893C12.8285 10.979 12.805 10.9675 12.7815 10.9561C12.7113 10.922 12.6445 10.8812 12.58 10.8374C12.4623 10.7574 12.6789 10.9199 12.5695 10.8294C12.5364 10.802 12.5052 10.7724 12.4744 10.7425C12.4498 10.7185 12.4265 10.6932 12.4035 10.6678C12.3921 10.655 12.3809 10.642 12.3698 10.6288C12.3036 10.5507 12.4545 10.7411 12.3934 10.659C12.3418 10.5898 12.2978 10.5154 12.2582 10.439C12.2383 10.4008 12.1867 10.2765 12.2603 10.4522C12.2434 10.4119 12.2293 10.3707 12.2158 10.3291C12.1886 10.2447 12.1705 10.1577 12.1577 10.0703C12.1644 10.119 12.1709 10.1678 12.1776 10.2165C12.159 10.0717 12.159 9.92693 12.1776 9.78192C12.1709 9.83063 12.1644 9.87948 12.1577 9.92819C12.1692 9.84902 12.186 9.77139 12.208 9.69447C12.2201 9.65249 12.235 9.61137 12.2505 9.57052C12.2715 9.5183 12.263 9.53795 12.2245 9.62989C12.2349 9.60617 12.2465 9.58287 12.258 9.55957C12.2925 9.49022 12.3339 9.42425 12.3782 9.36052C12.4592 9.24415 12.2947 9.45822 12.3863 9.35013C12.414 9.31743 12.444 9.28654 12.4742 9.25608C12.4985 9.2318 12.5241 9.20878 12.5498 9.18604C12.5627 9.17481 12.5759 9.16372 12.5893 9.15277C12.6683 9.08736 12.4756 9.23643 12.5587 9.17607C12.6288 9.12511 12.704 9.0816 12.7813 9.04243C12.82 9.02278 12.9458 8.97183 12.768 9.04454C12.8087 9.02784 12.8505 9.01394 12.8925 9.0006C12.9779 8.97365 13.066 8.95582 13.1545 8.94319C13.1052 8.94979 13.0558 8.95624 13.0065 8.96284C13.0796 8.95358 13.1526 8.9488 13.2264 8.9481C13.5299 8.94558 13.7832 8.69978 13.7832 8.39786C13.7832 8.09985 13.5299 7.84507 13.2264 7.84762C12.6562 7.85239 12.1174 8.07165 11.7053 8.45978C11.2955 8.84579 11.0738 9.39057 11.05 9.94408C11.026 10.5065 11.2581 11.0506 11.6331 11.4649C12.0114 11.8829 12.5583 12.1051 13.1154 12.1469C13.6873 12.1899 14.2394 11.9649 14.6707 11.6073C15.1071 11.2456 15.3342 10.7105 15.3953 10.1628C15.4243 9.90292 15.387 9.6257 15.3109 9.37652C15.2226 9.08735 15.0736 8.84605 14.8869 8.61121C14.5373 8.17158 13.9956 7.93095 13.4463 7.86203C13.3731 7.85291 13.3001 7.84799 13.2264 7.84743C12.9228 7.8449 12.6696 8.09968 12.6696 8.39767C12.6696 8.69975 12.923 8.94554 13.2264 8.94806L13.2264 8.9481Z" fill="#EAF4F4"/>
<path d="M8.95036 4.36867H10.8355H14.6413H17.5943H17.9159C18.2195 4.36867 18.4727 4.11839 18.4727 3.81843C18.4727 3.51845 18.2195 3.26819 17.9159 3.26819H16.0308H12.225H9.27196H8.95036C8.64681 3.26819 8.39355 3.51847 8.39355 3.81843C8.39341 4.11841 8.64682 4.36867 8.95036 4.36867Z" fill="#EAF4F4"/>
<path d="M2.22526 4.36867H5.19533H5.55144C5.855 4.36867 6.10825 4.11839 6.10825 3.81843C6.10825 3.51845 5.85498 3.26819 5.55144 3.26819H2.58138H2.22526C1.92171 3.26819 1.66846 3.51847 1.66846 3.81843C1.66846 4.11841 1.92173 4.36867 2.22526 4.36867Z" fill="#EAF4F4"/>
<path d="M7.25615 2.76732C7.32987 2.76788 7.40288 2.77279 7.47604 2.78191C7.42674 2.77532 7.37731 2.76886 7.32802 2.76226C7.40814 2.77363 7.48669 2.7902 7.56453 2.81209C7.607 2.82403 7.64862 2.83876 7.68996 2.85407C7.74294 2.87484 7.72291 2.86642 7.62987 2.82838C7.65402 2.83863 7.67746 2.85014 7.70104 2.86151C7.77121 2.89562 7.83797 2.93646 7.90246 2.98026C8.02022 3.06028 7.8036 2.89772 7.91297 2.98826C7.94607 3.01564 7.97732 3.04525 8.00815 3.07515C8.03272 3.09916 8.05601 3.12443 8.07903 3.14983C8.09039 3.16261 8.10161 3.17566 8.11269 3.18885C8.17888 3.2669 8.02803 3.07656 8.08911 3.15867C8.14068 3.22788 8.18471 3.30227 8.22434 3.37864C8.24423 3.41682 8.29579 3.54119 8.22221 3.36544C8.23911 3.40573 8.25318 3.447 8.26667 3.48855C8.29395 3.57291 8.31199 3.65994 8.32477 3.74739C8.3181 3.69868 8.31156 3.64984 8.30489 3.60113C8.32349 3.74599 8.32349 3.89072 8.30489 4.03573C8.31156 3.98702 8.3181 3.93817 8.32477 3.88946C8.31327 3.96863 8.2965 4.04626 8.27435 4.12318C8.26227 4.16515 8.24736 4.20628 8.23187 4.24713C8.21085 4.29949 8.21937 4.2797 8.25787 4.18775C8.2475 4.21162 8.23585 4.23478 8.22434 4.25808C8.18983 4.32742 8.14849 4.3934 8.10417 4.45713C8.0232 4.5735 8.1877 4.35943 8.09608 4.46751C8.06823 4.50022 8.0384 4.5311 8.00815 4.56156C7.98386 4.58585 7.95829 4.60887 7.93258 4.63161C7.91965 4.64284 7.90644 4.65393 7.89309 4.66488C7.81411 4.73029 8.00673 4.58122 7.92363 4.64158C7.8536 4.69253 7.77832 4.73605 7.70104 4.77521C7.66241 4.79486 7.53655 4.84582 7.7144 4.77311C7.67363 4.78981 7.63187 4.80371 7.58982 4.81705C7.50445 4.844 7.41638 4.86182 7.32789 4.87446C7.37718 4.86786 7.42661 4.8614 7.4759 4.85481C7.32931 4.8732 7.18286 4.8732 7.03611 4.85481C7.0854 4.8614 7.13483 4.86786 7.18412 4.87446C7.10401 4.86309 7.02546 4.84652 6.94762 4.82463C6.90514 4.8127 6.86352 4.79796 6.82219 4.78266C6.76935 4.76188 6.78924 4.7703 6.88227 4.80834C6.85827 4.7981 6.83469 4.78659 6.81111 4.77521C6.74094 4.7411 6.67418 4.70026 6.60969 4.65646C6.49193 4.57645 6.70855 4.739 6.59917 4.64846C6.56608 4.62095 6.53483 4.59147 6.504 4.56157C6.47943 4.53756 6.45613 4.5123 6.43312 4.48689C6.42176 4.47412 6.41054 4.46106 6.39946 4.44787C6.33326 4.36982 6.48412 4.56017 6.42304 4.47805C6.37147 4.40884 6.32744 4.33445 6.28781 4.25808C6.26792 4.2199 6.21636 4.09553 6.28994 4.27128C6.27303 4.23099 6.25897 4.18972 6.24547 4.14817C6.2182 4.06381 6.20016 3.97678 6.18738 3.88933C6.19405 3.93804 6.20059 3.98688 6.20726 4.03559C6.18865 3.89073 6.18865 3.74601 6.20726 3.60099C6.20059 3.6497 6.19405 3.69855 6.18738 3.74726C6.19888 3.66809 6.21564 3.59046 6.2378 3.51354C6.24988 3.47157 6.26479 3.43044 6.28027 3.38959C6.3013 3.33737 6.29277 3.35703 6.25428 3.44897C6.26465 3.42525 6.2763 3.40194 6.2878 3.37864C6.32232 3.3093 6.36366 3.24332 6.40798 3.17959C6.48894 3.06322 6.32445 3.27729 6.41607 3.16921C6.44377 3.1365 6.47374 3.10562 6.504 3.07516C6.52829 3.05087 6.55386 3.02785 6.57957 3.00511C6.5925 2.99388 6.60571 2.98279 6.61906 2.97184C6.69804 2.90643 6.50542 3.0555 6.58852 2.99514C6.65855 2.94419 6.73383 2.90067 6.8111 2.86151C6.84974 2.84186 6.97559 2.7909 6.79775 2.86361C6.83852 2.84691 6.88028 2.83301 6.92233 2.81968C7.0077 2.79272 7.09577 2.7749 7.18426 2.76226C7.13497 2.76886 7.08554 2.77532 7.03625 2.78191C7.1094 2.77279 7.18241 2.76788 7.25614 2.76732C7.55969 2.76479 7.81294 2.519 7.81294 2.21707C7.81294 1.91906 7.55968 1.66428 7.25614 1.66683C6.68595 1.67161 6.14718 1.89087 5.7351 2.27899C5.32528 2.66501 5.10357 3.20979 5.07982 3.7633C5.05582 4.32576 5.28792 4.86985 5.66292 5.28408C6.04118 5.70211 6.58806 5.9243 7.14519 5.96613C7.71709 6.00909 8.2692 5.78407 8.70048 5.42653C9.13685 5.0648 9.36398 4.52969 9.42507 3.98196C9.45405 3.72213 9.41683 3.44491 9.3407 3.19574C9.25234 2.90657 9.10348 2.66526 8.91669 2.43042C8.56711 1.99079 8.02534 1.75017 7.47606 1.68124C7.4029 1.67212 7.32989 1.66721 7.25617 1.66664C6.95261 1.66412 6.69936 1.91889 6.69936 2.21689C6.69936 2.51896 6.95278 2.76476 7.25617 2.76727L7.25615 2.76732Z" fill="#EAF4F4"/>
</svg>
