<svg width="9" height="9" viewBox="0 0 9 9" fill="none" xmlns="http://www.w3.org/2000/svg">
<path fill-rule="evenodd" clip-rule="evenodd" d="M3.93218 1.54275C4.18531 1.107 4.81456 1.107 5.06768 1.54275L5.84206 2.87775C5.91331 3.00075 6.03706 3.08438 6.17768 3.10575L7.46393 3.3C8.02418 3.38476 8.22068 4.09275 7.78418 4.45425L6.84706 5.2305C6.78247 5.28405 6.73343 5.35394 6.70507 5.4329C6.67671 5.51186 6.67005 5.59698 6.68581 5.67938L6.94831 7.05788C7.05105 7.59788 6.48406 8.01713 5.99768 7.76138L4.71818 7.0875C4.65088 7.0521 4.57598 7.0336 4.49993 7.0336C4.42388 7.0336 4.34898 7.0521 4.28168 7.0875L3.00218 7.76138C2.51581 8.01751 1.94881 7.59788 2.05156 7.05788L2.31406 5.67938C2.32981 5.59698 2.32315 5.51186 2.29479 5.4329C2.26643 5.35394 2.21739 5.28405 2.15281 5.2305L1.21531 4.45425C0.77918 4.09275 0.975305 3.38476 1.53631 3.3L2.82256 3.10575C2.89197 3.09523 2.95814 3.06924 3.01616 3.02971C3.07419 2.99018 3.1226 2.93812 3.15781 2.87738L3.93218 1.54275ZM4.58093 1.82513C4.57268 1.81097 4.56085 1.79922 4.54664 1.79105C4.53243 1.78288 4.51632 1.77858 4.49993 1.77858C4.48354 1.77858 4.46743 1.78288 4.45322 1.79105C4.43901 1.79922 4.42718 1.81097 4.41893 1.82513L3.64418 3.16013C3.56664 3.29365 3.4601 3.40805 3.33243 3.49489C3.20476 3.58174 3.05922 3.6388 2.90656 3.66188L1.62031 3.85613C1.6024 3.85882 1.58565 3.86665 1.57209 3.87865C1.55853 3.89066 1.54874 3.90634 1.5439 3.92379C1.53906 3.94124 1.53938 3.95972 1.54482 3.977C1.55026 3.99427 1.56059 4.0096 1.57456 4.02113L2.51168 4.79738C2.65375 4.91509 2.76164 5.06875 2.82411 5.24236C2.88657 5.41596 2.90131 5.60314 2.86681 5.78438L2.60431 7.16288C2.60101 7.18021 2.60266 7.19812 2.60909 7.21455C2.61551 7.23098 2.62644 7.24527 2.64062 7.25576C2.6548 7.26626 2.67165 7.27254 2.68924 7.27389C2.70683 7.27524 2.72444 7.27159 2.74006 7.26338L4.01956 6.58988C4.16767 6.51191 4.33254 6.47116 4.49993 6.47116C4.66732 6.47116 4.83219 6.51191 4.98031 6.58988L6.25981 7.26338C6.27542 7.27159 6.29303 7.27524 6.31062 7.27389C6.32821 7.27254 6.34506 7.26626 6.35924 7.25576C6.37342 7.24527 6.38435 7.23098 6.39077 7.21455C6.3972 7.19812 6.39885 7.18021 6.39556 7.16288L6.13305 5.78438C6.09855 5.60314 6.11329 5.41596 6.17575 5.24236C6.23822 5.06875 6.34611 4.91509 6.48818 4.79738L7.42568 4.02113C7.43965 4.00957 7.44997 3.99422 7.4554 3.97691C7.46082 3.95961 7.4611 3.94111 7.45622 3.92365C7.45134 3.90618 7.4415 3.89051 7.42789 3.87853C7.41429 3.86654 7.39749 3.85876 7.37956 3.85613L6.09331 3.66188C5.9406 3.63876 5.79504 3.58164 5.66737 3.49473C5.5397 3.40782 5.43318 3.29334 5.35568 3.15975L4.58093 1.82513Z" fill="white"/>
</svg>
