<svg width="19" height="23" viewBox="0 0 19 23" fill="none" xmlns="http://www.w3.org/2000/svg">
<path fill-rule="evenodd" clip-rule="evenodd" d="M14.2557 0.25336C14.2541 0.168996 14.2524 0.0844979 14.2524 0C11.4686 0.227972 9.30551 2.71318 9.5543 5.23912C9.8546 5.30747 10.3519 5.25137 10.7519 5.11779C12.4773 4.54051 14.1056 2.79711 14.2497 0.797233C14.2627 0.617469 14.2592 0.435727 14.2557 0.25336ZM5.77459 22.2186H6.36209C6.77374 22.1567 7.17749 22.0517 7.56645 21.9051C7.66245 21.8695 7.75803 21.8328 7.85356 21.7961C8.08046 21.709 8.30703 21.6221 8.53807 21.5489C9.55037 21.2279 10.5597 21.2664 11.5598 21.6077C11.7202 21.6625 11.8793 21.7216 12.0383 21.7807C12.3115 21.8821 12.5846 21.9836 12.8641 22.0632C13.6018 22.2736 14.3391 22.2636 15.0333 21.8996C15.2832 21.7643 15.518 21.6034 15.7338 21.4196C16.6869 20.6268 17.3977 19.6452 17.9852 18.5699C18.356 17.8909 18.6687 17.1861 18.953 16.4685C18.9623 16.4454 18.9734 16.4231 18.9846 16.4006C18.9898 16.3902 18.995 16.3798 19 16.3693V16.2802C18.4601 16.0802 17.9658 15.7767 17.5455 15.3875C16.3457 14.287 15.7819 12.9203 15.896 11.3134C15.9943 9.92304 16.6609 8.80923 17.7568 7.93964C17.86 7.85838 17.9651 7.78113 18.0731 7.70588C18.1442 7.65637 18.2165 7.61052 18.2969 7.55957C18.3387 7.5331 18.3826 7.50525 18.4297 7.47479C18.3605 7.39843 18.2932 7.32148 18.2263 7.24496C18.0836 7.0819 17.9426 6.92084 17.7898 6.77173C16.9343 5.93777 15.879 5.52123 14.7072 5.32977C13.6997 5.16502 12.7432 5.34313 11.7942 5.65481C11.1278 5.8732 10.4583 6.08203 9.78311 6.26882C9.62585 6.31223 9.42949 6.27705 9.26612 6.22874C8.83126 6.10027 8.40264 5.95079 7.97438 5.80143L7.94335 5.79061C7.37235 5.59136 6.79389 5.42394 6.19149 5.34313C5.79041 5.28925 5.39611 5.3389 5.00294 5.40346C4.18519 5.53837 3.42258 5.81643 2.73047 6.27171C1.81352 6.87481 1.15598 7.69208 0.700217 8.67298C0.288293 9.5586 0.077246 10.4948 0.0191744 11.4639C-0.09019 13.2914 0.273381 15.0373 0.979279 16.7199C1.61536 18.2364 2.50021 19.6 3.60493 20.8267C3.92895 21.1854 4.26337 21.5285 4.67462 21.7918C5 22.0004 5.3473 22.1505 5.73505 22.2008C5.74907 22.2047 5.7624 22.2107 5.77459 22.2186Z" fill="black"/>
</svg>
