<svg width="18" height="18" viewBox="0 0 18 18" fill="none" xmlns="http://www.w3.org/2000/svg">
<path d="M6.5325 5.78254L8.25 4.05754V11.25C8.25 11.449 8.32902 11.6397 8.46967 11.7804C8.61032 11.921 8.80109 12 9 12C9.19891 12 9.38968 11.921 9.53033 11.7804C9.67098 11.6397 9.75 11.449 9.75 11.25V4.05754L11.4675 5.78254C11.5372 5.85284 11.6202 5.90864 11.7116 5.94671C11.803 5.98479 11.901 6.00439 12 6.00439C12.099 6.00439 12.197 5.98479 12.2884 5.94671C12.3798 5.90864 12.4628 5.85284 12.5325 5.78254C12.6028 5.71282 12.6586 5.62987 12.6967 5.53848C12.7347 5.44708 12.7543 5.34905 12.7543 5.25004C12.7543 5.15104 12.7347 5.05301 12.6967 4.96161C12.6586 4.87022 12.6028 4.78727 12.5325 4.71754L9.5325 1.71754C9.46117 1.64926 9.37706 1.59574 9.285 1.56004C9.1024 1.48503 8.8976 1.48503 8.715 1.56004C8.62294 1.59574 8.53883 1.64926 8.4675 1.71754L5.4675 4.71754C5.39757 4.78747 5.3421 4.87049 5.30426 4.96186C5.26641 5.05322 5.24693 5.15115 5.24693 5.25004C5.24693 5.34894 5.26641 5.44686 5.30426 5.53823C5.3421 5.6296 5.39757 5.71262 5.4675 5.78254C5.53743 5.85247 5.62045 5.90794 5.71181 5.94579C5.80318 5.98363 5.90111 6.00311 6 6.00311C6.09889 6.00311 6.19682 5.98363 6.28819 5.94579C6.37955 5.90794 6.46257 5.85247 6.5325 5.78254ZM15.75 9.00004C15.5511 9.00004 15.3603 9.07906 15.2197 9.21971C15.079 9.36037 15 9.55113 15 9.75004V14.25C15 14.449 14.921 14.6397 14.7803 14.7804C14.6397 14.921 14.4489 15 14.25 15H3.75C3.55109 15 3.36032 14.921 3.21967 14.7804C3.07902 14.6397 3 14.449 3 14.25V9.75004C3 9.55113 2.92098 9.36037 2.78033 9.21971C2.63968 9.07906 2.44891 9.00004 2.25 9.00004C2.05109 9.00004 1.86032 9.07906 1.71967 9.21971C1.57902 9.36037 1.5 9.55113 1.5 9.75004V14.25C1.5 14.8468 1.73705 15.4191 2.15901 15.841C2.58097 16.263 3.15326 16.5 3.75 16.5H14.25C14.8467 16.5 15.419 16.263 15.841 15.841C16.2629 15.4191 16.5 14.8468 16.5 14.25V9.75004C16.5 9.55113 16.421 9.36037 16.2803 9.21971C16.1397 9.07906 15.9489 9.00004 15.75 9.00004Z" fill="#313333"/>
</svg>
