<svg width="25" height="25" viewBox="0 0 25 25" fill="none" xmlns="http://www.w3.org/2000/svg">
<path d="M11.3667 6.37517C11.7297 6.31738 12.0966 6.28756 12.4641 6.28596C15.7575 6.26691 18.8679 8.6207 20.6922 12.4526C20.42 13.039 20.112 13.608 19.7699 14.1565C19.6613 14.3268 19.6049 14.5251 19.6075 14.7271C19.6111 14.9531 19.6886 15.1717 19.8281 15.3496C19.9675 15.5275 20.1614 15.6549 20.38 15.7123C20.5986 15.7697 20.83 15.754 21.0389 15.6676C21.2478 15.5812 21.4227 15.4289 21.5369 15.2338C22.015 14.4728 22.4296 13.6737 22.7763 12.8445C22.8311 12.715 22.8589 12.5756 22.8581 12.4349C22.8573 12.2943 22.8278 12.1552 22.7715 12.0263C20.6514 7.1811 16.6984 4.19005 12.4521 4.21461C11.966 4.21497 11.4809 4.25938 11.0029 4.34728C10.867 4.37119 10.7372 4.42162 10.6208 4.49571C10.5044 4.56979 10.4038 4.66607 10.3246 4.77906C10.2454 4.89204 10.1893 5.01951 10.1594 5.15419C10.1294 5.28887 10.1264 5.42812 10.1503 5.56399C10.1742 5.69986 10.2246 5.8297 10.2987 5.94608C10.3728 6.06246 10.4691 6.16311 10.582 6.24228C10.695 6.32145 10.8225 6.3776 10.9572 6.4075C11.0919 6.43741 11.2311 6.4405 11.367 6.41659L11.3667 6.37517ZM3.8561 2.49327C3.75898 2.39726 3.6439 2.32132 3.51743 2.26979C3.39096 2.21826 3.25557 2.19215 3.11901 2.19294C2.98245 2.19373 2.84738 2.22141 2.72151 2.2744C2.59565 2.32739 2.48145 2.40465 2.38544 2.50177C2.19155 2.69792 2.08352 2.96306 2.08511 3.23886C2.08671 3.51467 2.1978 3.77854 2.39395 3.97243L5.62305 7.1541C4.16632 8.57267 3.01023 10.2701 2.22372 12.1452C2.16745 12.2762 2.13883 12.4174 2.13966 12.5599C2.14048 12.7025 2.17073 12.8434 2.22851 12.9737C4.34867 17.8189 8.30167 20.81 12.5479 20.7854C14.4091 20.7618 16.2231 20.1971 17.7689 19.1602L21.1439 22.5068C21.2408 22.6033 21.3558 22.6797 21.4823 22.7315C21.6088 22.7834 21.7443 22.8097 21.881 22.8089C22.0178 22.8081 22.153 22.7802 22.2789 22.7269C22.4048 22.6736 22.5189 22.5959 22.6146 22.4983C22.7111 22.4014 22.7875 22.2864 22.8393 22.1599C22.8912 22.0334 22.9175 21.8979 22.9167 21.7612C22.9159 21.6244 22.8881 21.4892 22.8347 21.3633C22.7814 21.2374 22.7037 21.1233 22.6061 21.0276L3.8561 2.49327ZM10.4981 11.973L13.0501 14.4958C12.8754 14.547 12.6941 14.5724 12.512 14.5714C11.9626 14.5745 11.4345 14.3594 11.0438 13.9732C10.6531 13.5869 10.4318 13.0614 10.4287 12.512C10.4255 12.3299 10.4489 12.1484 10.4981 11.973ZM12.536 18.7141C9.24251 18.7331 6.13213 16.3793 4.31818 12.5473C4.97878 11.0663 5.92076 9.72775 7.0918 8.60596L8.93567 10.4492C8.50963 11.2376 8.3507 12.1428 8.48272 13.0292C8.61474 13.9155 9.0306 14.7351 9.6679 15.3651C10.3052 15.9951 11.1296 16.4014 12.0174 16.5232C12.9052 16.6449 13.8085 16.4755 14.5919 16.0404L16.248 17.6569C15.1241 18.3272 13.8444 18.6916 12.536 18.7141Z" fill="#626666"/>
</svg>
