<svg width="22" height="22" viewBox="0 0 22 22" fill="none" xmlns="http://www.w3.org/2000/svg">
<path d="M3.66675 10.9999C3.66675 11.243 3.76333 11.4762 3.93523 11.6481C4.10714 11.82 4.3403 11.9166 4.58341 11.9166H11.5409L9.43258 14.0158C9.34666 14.101 9.27847 14.2024 9.23193 14.3141C9.18539 14.4258 9.16143 14.5456 9.16143 14.6666C9.16143 14.7876 9.18539 14.9074 9.23193 15.0191C9.27847 15.1308 9.34666 15.2322 9.43258 15.3174C9.5178 15.4033 9.61918 15.4715 9.73089 15.5181C9.84259 15.5646 9.9624 15.5886 10.0834 15.5886C10.2044 15.5886 10.3242 15.5646 10.4359 15.5181C10.5476 15.4715 10.649 15.4033 10.7342 15.3174L14.4009 11.6508C14.4844 11.5636 14.5498 11.4608 14.5934 11.3483C14.6851 11.1251 14.6851 10.8748 14.5934 10.6516C14.5498 10.5391 14.4844 10.4363 14.4009 10.3491L10.7342 6.68242C10.6488 6.59695 10.5473 6.52915 10.4356 6.4829C10.324 6.43664 10.2043 6.41283 10.0834 6.41283C9.96254 6.41283 9.84286 6.43664 9.73119 6.4829C9.61952 6.52915 9.51805 6.59695 9.43258 6.68242C9.34711 6.76789 9.27931 6.86935 9.23306 6.98102C9.1868 7.09269 9.163 7.21238 9.163 7.33325C9.163 7.45412 9.1868 7.57381 9.23306 7.68548C9.27931 7.79715 9.34711 7.89862 9.43258 7.98409L11.5409 10.0833H4.58341C4.3403 10.0833 4.10714 10.1798 3.93523 10.3517C3.76333 10.5236 3.66675 10.7568 3.66675 10.9999ZM15.5834 1.83325H6.41675C5.6874 1.83325 4.98793 2.12298 4.4722 2.63871C3.95648 3.15443 3.66675 3.85391 3.66675 4.58325V7.33325C3.66675 7.57637 3.76333 7.80952 3.93523 7.98143C4.10714 8.15334 4.3403 8.24992 4.58341 8.24992C4.82653 8.24992 5.05969 8.15334 5.2316 7.98143C5.4035 7.80952 5.50008 7.57637 5.50008 7.33325V4.58325C5.50008 4.34014 5.59666 4.10698 5.76857 3.93507C5.94048 3.76316 6.17363 3.66659 6.41675 3.66659H15.5834C15.8265 3.66659 16.0597 3.76316 16.2316 3.93507C16.4035 4.10698 16.5001 4.34014 16.5001 4.58325V17.4166C16.5001 17.6597 16.4035 17.8929 16.2316 18.0648C16.0597 18.2367 15.8265 18.3333 15.5834 18.3333H6.41675C6.17363 18.3333 5.94048 18.2367 5.76857 18.0648C5.59666 17.8929 5.50008 17.6597 5.50008 17.4166V14.6666C5.50008 14.4235 5.4035 14.1903 5.2316 14.0184C5.05969 13.8465 4.82653 13.7499 4.58341 13.7499C4.3403 13.7499 4.10714 13.8465 3.93523 14.0184C3.76333 14.1903 3.66675 14.4235 3.66675 14.6666V17.4166C3.66675 18.1459 3.95648 18.8454 4.4722 19.3611C4.98793 19.8769 5.6874 20.1666 6.41675 20.1666H15.5834C16.3128 20.1666 17.0122 19.8769 17.528 19.3611C18.0437 18.8454 18.3334 18.1459 18.3334 17.4166V4.58325C18.3334 3.85391 18.0437 3.15443 17.528 2.63871C17.0122 2.12298 16.3128 1.83325 15.5834 1.83325Z" fill="#CDE7BE"/>
</svg>
