<svg width="33" height="33" viewBox="0 0 33 33" fill="none" xmlns="http://www.w3.org/2000/svg">
<path d="M20.625 8.25H12.375C12.0103 8.25 11.6606 8.39487 11.4027 8.65273C11.1449 8.91059 11 9.26033 11 9.625V15.125C11 15.4897 11.1449 15.8394 11.4027 16.0973C11.6606 16.3551 12.0103 16.5 12.375 16.5H20.625C20.9897 16.5 21.3394 16.3551 21.5973 16.0973C21.8551 15.8394 22 15.4897 22 15.125V9.625C22 9.26033 21.8551 8.91059 21.5973 8.65273C21.3394 8.39487 20.9897 8.25 20.625 8.25ZM19.25 13.75H13.75V11H19.25V13.75ZM23.375 2.75H6.875C6.51033 2.75 6.16059 2.89487 5.90273 3.15273C5.64487 3.41059 5.5 3.76033 5.5 4.125V28.875C5.5 29.2397 5.64487 29.5894 5.90273 29.8473C6.16059 30.1051 6.51033 30.25 6.875 30.25H23.375C24.469 30.25 25.5182 29.8154 26.2918 29.0418C27.0654 28.2682 27.5 27.219 27.5 26.125V6.875C27.5 5.78098 27.0654 4.73177 26.2918 3.95818C25.5182 3.1846 24.469 2.75 23.375 2.75ZM24.75 26.125C24.75 26.4897 24.6051 26.8394 24.3473 27.0973C24.0894 27.3551 23.7397 27.5 23.375 27.5H8.25V5.5H23.375C23.7397 5.5 24.0894 5.64487 24.3473 5.90273C24.6051 6.16059 24.75 6.51033 24.75 6.875V26.125Z" fill="#EAF4F4"/>
</svg>
