<svg width="22" height="22" viewBox="0 0 22 22" fill="none" xmlns="http://www.w3.org/2000/svg">
<path d="M6.41658 13.75H9.16658C9.4097 13.75 9.64286 13.6535 9.81477 13.4816C9.98667 13.3096 10.0833 13.0765 10.0833 12.8334C10.0833 12.5903 9.98667 12.3571 9.81477 12.1852C9.64286 12.0133 9.4097 11.9167 9.16658 11.9167H6.41658C6.17347 11.9167 5.94031 12.0133 5.7684 12.1852C5.5965 12.3571 5.49992 12.5903 5.49992 12.8334C5.49992 13.0765 5.5965 13.3096 5.7684 13.4816C5.94031 13.6535 6.17347 13.75 6.41658 13.75ZM17.4166 4.58337H4.58325C3.85391 4.58337 3.15443 4.87311 2.63871 5.38883C2.12298 5.90456 1.83325 6.60403 1.83325 7.33337V15.5834C1.83325 16.3127 2.12298 17.0122 2.63871 17.5279C3.15443 18.0436 3.85391 18.3334 4.58325 18.3334H17.4166C18.1459 18.3334 18.8454 18.0436 19.3611 17.5279C19.8769 17.0122 20.1666 16.3127 20.1666 15.5834V7.33337C20.1666 6.60403 19.8769 5.90456 19.3611 5.38883C18.8454 4.87311 18.1459 4.58337 17.4166 4.58337ZM18.3333 15.5834C18.3333 15.8265 18.2367 16.0596 18.0648 16.2316C17.8929 16.4035 17.6597 16.5 17.4166 16.5H4.58325C4.34014 16.5 4.10698 16.4035 3.93507 16.2316C3.76316 16.0596 3.66659 15.8265 3.66659 15.5834V10.0834H18.3333V15.5834ZM18.3333 8.25004H3.66659V7.33337C3.66659 7.09026 3.76316 6.8571 3.93507 6.68519C4.10698 6.51328 4.34014 6.41671 4.58325 6.41671H17.4166C17.6597 6.41671 17.8929 6.51328 18.0648 6.68519C18.2367 6.8571 18.3333 7.09026 18.3333 7.33337V8.25004Z" fill="#CDE7BE"/>
</svg>
